<?xml version="1.0" encoding="UTF-8"?>
<!DOCTYPE svg PUBLIC "-//W3C//DTD SVG 1.1//EN" "http://www.w3.org/Graphics/SVG/1.1/DTD/svg11.dtd">
<svg xmlns="http://www.w3.org/2000/svg" version="1.1" width="1080px" height="1080px" style="shape-rendering:geometricPrecision; text-rendering:geometricPrecision; image-rendering:optimizeQuality; fill-rule:evenodd; clip-rule:evenodd" xmlns:xlink="http://www.w3.org/1999/xlink">
<g><path style="opacity:1" fill="#c78206" d="M 431.5,749.5 C 429.707,751.426 428.707,753.759 428.5,756.5C 428.389,757.117 428.056,757.617 427.5,758C 375.792,758.171 324.126,758.671 272.5,759.5C 263.915,755.882 263.248,751.048 270.5,745C 281.013,745.031 291.346,743.697 301.5,741C 306.833,738.996 311.666,736.163 316,732.5C 319.252,727.666 322.252,722.666 325,717.5C 326.917,706.256 327.917,694.923 328,683.5C 328.667,543.5 328.667,403.5 328,263.5C 330.835,239.323 321.335,222.157 299.5,212C 289.807,210.661 280.141,209.994 270.5,210C 264.078,205.217 264.078,200.55 270.5,196C 274.5,195.833 278.5,195.667 282.5,195.5C 341.987,195.677 401.487,195.677 461,195.5C 473.059,196.105 485.059,196.771 497,197.5C 499.16,201.519 498.994,205.353 496.5,209C 487.847,209.844 479.18,210.51 470.5,211C 464.112,212.628 458.112,215.128 452.5,218.5C 449.516,221.985 446.349,225.318 443,228.5C 440.867,232.979 439.2,237.645 438,242.5C 436.919,249.791 436.253,257.124 436,264.5C 434.708,337.495 434.708,410.495 436,483.5C 437.378,485.213 439.045,486.547 441,487.5C 484.96,487.655 529.127,487.488 573.5,487C 576.167,486.667 578.833,486.333 581.5,486C 582.126,485.25 582.626,484.416 583,483.5C 583.945,417.819 583.612,352.152 582,286.5C 580.413,281.232 579.08,275.899 578,270.5C 564.864,254.586 548.197,247.919 528,250.5C 519.485,247.929 518.319,243.429 524.5,237C 588.706,237.102 653.039,236.602 717.5,235.5C 728.485,236.241 739.485,236.741 750.5,237C 755.665,240.996 755.665,244.996 750.5,249C 732.664,246.983 716.83,251.483 703,262.5C 701.402,266.711 699.068,270.378 696,273.5C 692.516,285.589 690.849,297.922 691,310.5C 690.667,346.5 690.333,382.5 690,418.5C 680.127,435.039 671.127,452.039 663,469.5C 642.357,518.369 634.357,569.369 639,622.5C 640.615,638.938 642.949,655.271 646,671.5C 650.425,686.353 655.425,701.02 661,715.5C 662,716.5 663,717.5 664,718.5C 665.333,722.5 666.667,726.5 668,730.5C 675.299,744.111 682.966,757.445 691,770.5C 689.628,794.639 690.962,818.639 695,842.5C 697.732,846.241 700.066,850.241 702,854.5C 705.741,856.238 708.908,858.738 711.5,862C 715.511,863.335 719.511,864.669 723.5,866C 733.218,866.767 742.885,867.767 752.5,869C 754.821,872.75 754.987,876.584 753,880.5C 676.57,881.665 600.07,881.831 523.5,881C 519.346,875.944 520.013,871.61 525.5,868C 534.886,867.493 544.219,866.493 553.5,865C 568.427,861.073 577.593,851.573 581,836.5C 581.93,831.201 582.597,825.867 583,820.5C 583.171,737.305 583.671,654.139 584.5,571C 583.641,558.839 583.641,546.339 584.5,533.5C 584.291,529.685 583.291,526.185 581.5,523C 534.225,521.348 486.892,521.015 439.5,522C 438.667,522.833 437.833,523.667 437,524.5C 435.342,577.417 435.009,630.417 436,683.5C 435.691,696.725 437.191,709.725 440.5,722.5C 438.463,731.945 435.463,740.945 431.5,749.5 Z"/></g>
<g><path style="opacity:1" fill="#8e060b" d="M 60.5,274.5 C 130.784,274.717 200.784,274.717 270.5,274.5C 277.833,274.667 285.167,274.833 292.5,275C 296.953,277.071 298.953,280.571 298.5,285.5C 298.888,288.861 297.888,291.694 295.5,294C 286.267,295.28 276.934,295.947 267.5,296C 259.387,297.941 251.72,300.941 244.5,305C 237.646,312.534 233.479,321.367 232,331.5C 230.357,486.822 230.024,642.155 231,797.5C 231.116,807.6 232.116,817.6 234,827.5C 236.697,834.729 241.197,840.563 247.5,845C 254.769,846.467 262.102,847.467 269.5,848C 294.524,848.897 319.524,848.564 344.5,847C 366.621,844.355 385.454,835.188 401,819.5C 404.291,814.873 407.958,810.54 412,806.5C 423.486,788.195 432.819,768.861 440,748.5C 445.963,729.692 451.296,710.692 456,691.5C 460.979,684.612 466.646,683.945 473,689.5C 473.704,691.278 474.204,693.112 474.5,695C 468.853,755.123 463.686,815.289 459,875.5C 458.588,879.491 456.754,882.658 453.5,885C 322.167,885.667 190.833,885.667 59.5,885C 57.6667,883.833 56.1667,882.333 55,880.5C 54.3333,876.833 54.3333,873.167 55,869.5C 55.7845,867.714 56.9512,866.214 58.5,865C 68.0419,864.559 77.3752,863.892 86.5,863C 93.5065,860.746 100.006,857.579 106,853.5C 114.571,839.787 118.238,824.787 117,808.5C 117.975,649.822 117.642,491.156 116,332.5C 115.811,327.654 114.811,322.988 113,318.5C 109.74,314.246 106.907,309.746 104.5,305C 98.3221,302.081 91.9888,299.414 85.5,297C 76.5503,295.82 67.5503,295.153 58.5,295C 53.3252,290.801 52.1585,285.635 55,279.5C 56.3516,277.251 58.1849,275.584 60.5,274.5 Z"/></g>
<g><path style="opacity:1" fill="#8f060c" d="M 675.5,731.5 C 675.573,729.973 674.906,728.973 673.5,728.5C 640.475,659.56 633.642,587.894 653,513.5C 658.115,498.492 663.449,483.492 669,468.5C 674.552,455.728 680.885,443.395 688,431.5C 696.934,418.569 706.601,406.236 717,394.5C 775.201,334.18 844.701,315.68 925.5,339C 936.137,343.315 946.803,347.649 957.5,352C 966.441,357.116 975.941,360.949 986,363.5C 991.9,362.048 996.9,359.048 1001,354.5C 1004.46,347.446 1007.13,340.112 1009,332.5C 1013.45,327.716 1018.12,327.382 1023,331.5C 1024.66,386.751 1024.99,442.084 1024,497.5C 1019.4,504.82 1014.4,505.154 1009,498.5C 1002.9,474.968 994.562,452.301 984,430.5C 971.854,409.355 955.354,392.522 934.5,380C 905.202,363.119 874.869,361.119 843.5,374C 835.001,378.748 826.668,383.748 818.5,389C 810.973,395.194 804.14,402.027 798,409.5C 786.714,424.072 778.047,440.072 772,457.5C 754.049,513.905 748.382,571.572 755,630.5C 758.091,665.863 765.758,700.197 778,733.5C 807.371,796.044 855.537,817.544 922.5,798C 931.378,793.394 940.378,789.061 949.5,785C 956.833,779 964.167,773 971.5,767C 984.854,753.328 997.021,738.828 1008,723.5C 1012.91,719.025 1016.24,720.025 1018,726.5C 1017.34,735.336 1017.51,744.17 1018.5,753C 1018.12,757.88 1016.62,762.38 1014,766.5C 1000.86,780.638 987.363,794.471 973.5,808C 932.314,837.131 886.314,848.798 835.5,843C 800.82,838.222 768.82,826.556 739.5,808C 714.515,788.909 694.015,765.742 678,738.5C 676.589,736.35 675.755,734.016 675.5,731.5 Z"/></g>
<g><path style="opacity:1" fill="#c57905" d="M 673.5,728.5 C 674.906,728.973 675.573,729.973 675.5,731.5C 674.094,731.027 673.427,730.027 673.5,728.5 Z"/></g>
<g><path style="opacity:1" fill="#94170c" d="M 431.5,749.5 C 431.293,752.241 430.293,754.574 428.5,756.5C 428.707,753.759 429.707,751.426 431.5,749.5 Z"/></g>
</svg>
